<?xml version="1.0" encoding="UTF-8" standalone="no"?>
<!-- Created with Inkscape (http://www.inkscape.org/) -->

<svg
   xmlns:dc="http://purl.org/dc/elements/1.1/"
   xmlns:cc="http://creativecommons.org/ns#"
   xmlns:rdf="http://www.w3.org/1999/02/22-rdf-syntax-ns#"
   xmlns:svg="http://www.w3.org/2000/svg"
   xmlns="http://www.w3.org/2000/svg"
   xmlns:sodipodi="http://sodipodi.sourceforge.net/DTD/sodipodi-0.dtd"
   xmlns:inkscape="http://www.inkscape.org/namespaces/inkscape"
   width="128.00002"
   height="127.99966"
   viewBox="0 0 33.86667 33.866579"
   version="1.1"
   id="svg1434"
   inkscape:version="0.92.2 (5c3e80d, 2017-08-06)"
   sodipodi:docname="logov2-optimize.svg">
  <defs
     id="defs1428" />
  <sodipodi:namedview
     id="base"
     pagecolor="#ffffff"
     bordercolor="#666666"
     borderopacity="1.0"
     inkscape:pageopacity="0.0"
     inkscape:pageshadow="2"
     inkscape:zoom="0.49497475"
     inkscape:cx="800.00051"
     inkscape:cy="-137.14388"
     inkscape:document-units="px"
     inkscape:current-layer="layer1"
     showgrid="false"
     units="px"
     inkscape:window-width="1853"
     inkscape:window-height="1025"
     inkscape:window-x="67"
     inkscape:window-y="27"
     inkscape:window-maximized="1"
     fit-margin-top="0"
     fit-margin-left="0"
     fit-margin-right="0"
     fit-margin-bottom="0" />
  <metadata
     id="metadata1431">
    <rdf:RDF>
      <cc:Work
         rdf:about="">
        <dc:format>image/svg+xml</dc:format>
        <dc:type
           rdf:resource="http://purl.org/dc/dcmitype/StillImage" />
        <dc:title></dc:title>
      </cc:Work>
    </rdf:RDF>
  </metadata>
  <g
     inkscape:label="Layer 1"
     inkscape:groupmode="layer"
     id="layer1"
     transform="translate(551.08942,-78.680772)">
    <text
       id="text814-35-0-1-5-6-4-3"
       y="172.0575"
       x="46.809208"
       style="font-style:normal;font-variant:normal;font-weight:normal;font-stretch:normal;font-size:40.33761978px;line-height:1.25;font-family:Lato;-inkscape-font-specification:Lato;letter-spacing:0px;word-spacing:0px;fill:#000000;fill-opacity:1;stroke:none;stroke-width:1.08399379"
       xml:space="preserve"><tspan
         style="stroke-width:1.08399379"
         y="172.0575"
         x="46.809208"
         id="tspan812-62-9-8-9-1-5-6" /></text>
    <text
       id="text814-3-9-3-7-2-2-0-7"
       y="172.03123"
       x="81.628426"
       style="font-style:normal;font-variant:normal;font-weight:normal;font-stretch:normal;font-size:46.74851608px;line-height:1.25;font-family:Lato;-inkscape-font-specification:Lato;letter-spacing:0px;word-spacing:0px;fill:#000000;fill-opacity:1;stroke:none;stroke-width:1.08399379"
       xml:space="preserve"><tspan
         style="stroke-width:1.08399379"
         y="172.03123"
         x="81.628426"
         id="tspan812-6-1-6-9-2-9-3-5" /></text>
    <text
       xml:space="preserve"
       style="font-style:normal;font-variant:normal;font-weight:normal;font-stretch:normal;font-size:10.58333302px;line-height:1.25;font-family:Lato;-inkscape-font-specification:Lato;letter-spacing:0px;word-spacing:0px;fill:#000000;fill-opacity:1;stroke:none;stroke-width:0.26458332"
       x="25.702381"
       y="231.23213"
       id="text1474"><tspan
         sodipodi:role="line"
         id="tspan1472"
         x="25.702381"
         y="241.25984"
         style="stroke-width:0.26458332"></tspan></text>
    <path
       style="opacity:1;fill:#333333;fill-opacity:1;stroke:none;stroke-width:3.96875;stroke-linecap:butt;stroke-linejoin:miter;stroke-miterlimit:4;stroke-dasharray:none;stroke-opacity:1"
       d="M -551.08944,78.680771 V 216.24792 h 137.56752 V 78.680771 Z m 53.17376,14.488866 h 7.70129 c 0.47392,0 1.02681,0.05932 1.6587,0.177522 0.6714,0.118606 1.24418,0.513442 1.71806,1.184854 l 7.22744,8.945487 0.71097,1.06645 0.71096,-1.06645 7.16809,-8.88614 c 0.51342,-0.710897 1.08613,-1.125709 1.71805,-1.244201 0.67143,-0.118607 1.24414,-0.177522 1.71806,-0.177522 h 7.70133 l -14.0994,16.054533 h -9.83419 z m 18.00936,21.800963 c 4.7393,0 9.04405,0.75018 12.91455,2.25098 3.9099,1.5008 7.34598,3.67321 10.30804,6.5168 l -2.78454,5.44998 c -0.35541,0.59241 -0.75002,1.04663 -1.18451,1.36257 -0.39482,0.27662 -0.88886,0.41486 -1.48125,0.41486 -0.67143,0 -1.46133,-0.33553 -2.36973,-1.0071 -0.90834,-0.67141 -2.05346,-1.40205 -3.43578,-2.19195 -1.34279,-0.82935 -2.98188,-1.57989 -4.91709,-2.2513 -1.89572,-0.67138 -4.2062,-1.00706 -6.93128,-1.00706 -2.56718,0 -4.83789,0.35542 -6.81261,1.06644 -1.93521,0.67141 -3.5743,1.59935 -4.91709,2.7842 -1.30332,1.18481 -2.29087,2.58687 -2.96226,4.20611 -0.67143,1.57977 -1.00709,3.29797 -1.00709,5.15419 0,2.36967 0.57267,4.3441 1.71805,5.92391 1.18482,1.54024 2.72525,2.86349 4.62097,3.96934 1.93525,1.10584 4.10727,2.07354 6.51647,2.90293 2.44864,0.78987 4.93688,1.61917 7.46452,2.48804 2.56711,0.86887 5.05505,1.85611 7.46418,2.96196 2.44864,1.06631 4.62107,2.42895 6.51682,4.08772 1.93518,1.65877 3.47528,3.69281 4.62062,6.10194 1.18482,2.40914 1.77745,5.37117 1.77745,8.88615 0,3.71246 -0.63203,7.20779 -1.89585,10.4858 -1.26382,3.23853 -3.12003,6.06213 -5.5687,8.4713 -2.40917,2.40914 -5.39098,4.30479 -8.9455,5.68708 -3.51502,1.38232 -7.52347,2.07354 -12.02583,2.07354 -5.5292,0 -10.54505,-0.98718 -15.0474,-2.96189 -4.50236,-2.01426 -8.35291,-4.71966 -11.55194,-8.11617 l 3.3174,-5.45033 c 0.31615,-0.43445 0.69105,-0.78966 1.12547,-1.06614 0.47395,-0.31615 0.98744,-0.47419 1.54033,-0.47419 0.51345,0 1.08616,0.21773 1.71809,0.65194 0.67139,0.39485 1.42159,0.90811 2.25096,1.54 0.8294,0.63189 1.77751,1.32317 2.84386,2.07357 1.06638,0.75037 2.27077,1.44165 3.61357,2.07354 1.38229,0.63193 2.94224,1.16493 4.68001,1.59935 1.73774,0.39482 3.69264,0.5926 5.8648,0.5926 2.72515,0 5.1541,-0.37534 7.28679,-1.12584 2.13269,-0.75036 3.92972,-1.79682 5.39098,-3.13965 1.5008,-1.38232 2.64625,-3.02138 3.43615,-4.91709 0.78987,-1.89575 1.18482,-4.00859 1.18482,-6.33872 0,-2.56714 -0.59256,-4.66043 -1.77741,-6.2797 -1.14535,-1.65874 -2.66587,-3.04093 -4.56158,-4.14677 -1.89575,-1.10585 -4.06784,-2.03411 -6.51648,-2.78451 -2.44863,-0.78986 -4.93691,-1.57946 -7.46452,-2.36936 -2.52764,-0.82937 -5.01554,-1.77755 -7.46424,-2.84386 -2.44861,-1.06638 -4.62104,-2.44857 -6.51675,-4.14677 -1.89575,-1.69824 -3.43581,-3.81108 -4.62063,-6.33872 -1.14535,-2.56712 -1.71809,-5.72677 -1.71809,-9.47871 0,-3.00156 0.57274,-5.90433 1.71809,-8.70839 1.18482,-2.8041 2.88312,-5.29234 5.09482,-7.46455 2.25119,-2.17217 4.99599,-3.90991 8.23453,-5.21321 3.27801,-1.30331 7.02997,-1.95486 11.25581,-1.95486 z"
       id="rect1593"
       inkscape:connector-curvature="0" />
  </g>
</svg>
