<?xml version="1.0" encoding="UTF-8" standalone="no"?>
<!-- Created with Inkscape (http://www.inkscape.org/) -->
<svg xmlns:rdf="http://www.w3.org/1999/02/22-rdf-syntax-ns#" xmlns="http://www.w3.org/2000/svg" height="1122.5" width="793.7" version="1.1" xmlns:cc="http://creativecommons.org/ns#" xmlns:dc="http://purl.org/dc/elements/1.1/" viewBox="0 0 210 297">
 <metadata>
  <rdf:RDF>
   <cc:Work rdf:about="">
    <dc:format>image/svg+xml</dc:format>
    <dc:type rdf:resource="http://purl.org/dc/dcmitype/StillImage"/>
    <dc:title/>
   </cc:Work>
  </rdf:RDF>
 </metadata>
 <g>
  <text y="172.0575" x="46.809208" style="font-size:40.338px;font-family:Lato;letter-spacing:0px;word-spacing:0px;line-height:1.25;fill:#000000" xml:space="preserve"><tspan y="172.0575" x="46.809208" style="stroke-width:1.084"/></text>
  <text y="172.03123" x="81.628426" style="font-size:46.749px;font-family:Lato;letter-spacing:0px;word-spacing:0px;line-height:1.25;fill:#000000" xml:space="preserve"><tspan y="172.03123" x="81.628426" style="stroke-width:1.084"/></text>
  <text y="224.60484" x="-268.75238" style="font-size:183.6px;font-family:Lato;letter-spacing:0px;word-spacing:0px;line-height:1.25;fill:#000000" xml:space="preserve"><tspan y="224.60484" x="-268.75238" style="stroke-width:1.084">Š</tspan></text>
  <text y="231.23213" x="25.702381" xml:space="preserve" style="font-size:10.583px;font-family:Lato;letter-spacing:0px;word-spacing:0px;line-height:1.25;fill:#000000"><tspan x="25.702381" style="stroke-width:.26458" y="241.25984"/></text>
  <path style="fill:#000000" d="m-570 1.2055h241.92v228.73h-241.92z"/>
  <g aria-label="Š" style="fill:#78909c">
   <path style="stroke-width:1.084;fill:#78909c" d="m-413.65 87.25q-0.82622 1.377-1.836 2.1115-0.91803 0.64262-2.2951 0.64262-1.5606 0-3.6721-1.5606-2.1114-1.5606-5.3245-3.3967-3.1213-1.9278-7.6196-3.4885-4.4065-1.5606-10.741-1.5606-5.9672 0-10.557 1.6524-4.4983 1.5606-7.6196 4.3147-3.0295 2.7541-4.5901 6.518-1.5606 3.6721-1.5606 7.9868 0 5.5081 2.6623 9.1802 2.7541 3.5803 7.1606 6.1508 4.4983 2.5705 10.098 4.4983 5.6917 1.836 11.567 3.8557 5.9672 2.0196 11.567 4.5901 5.6917 2.4787 10.098 6.3344 4.4983 3.8557 7.1606 9.4556 2.7541 5.5999 2.7541 13.77 0 8.6294-2.9377 16.249-2.9377 7.5278-8.6294 13.128-5.5999 5.5999-13.862 8.813-8.1704 3.2131-18.636 3.2131-12.852 0-23.318-4.5901-10.465-4.6819-17.901-12.577l5.1409-8.4458q0.73442-1.0098 1.7442-1.6524 1.1016-0.73442 2.3868-0.73442 1.1934 0 2.6623 1.0098 1.5606 0.91802 3.4885 2.3868 1.9278 1.4688 4.4065 3.2131 2.4787 1.7442 5.5999 3.2131 3.2131 1.4688 7.2524 2.4787 4.0393 0.91802 9.0884 0.91802 6.3344 0 11.292-1.7442 4.9573-1.7442 8.354-4.8655 3.4885-3.2131 5.3245-7.6196t1.836-9.8228q0-5.9672-2.7541-9.731-2.6623-3.8557-7.0688-6.4262t-10.098-4.3147q-5.6917-1.836-11.567-3.6721-5.8753-1.9278-11.567-4.4065t-10.098-6.4262q-4.4065-3.9475-7.1606-9.8228-2.6623-5.9671-2.6623-14.688 0-6.977 2.6623-13.495 2.7541-6.518 7.895-11.567 5.2327-5.0491 12.761-8.0786 7.6196-3.0295 17.442-3.0295 11.016 0 20.013 3.4885 9.0884 3.4885 15.974 10.098zm-0.64262-55.816-21.849 24.878h-15.239l-21.849-24.878h11.934q1.1016 0 2.5705 0.27541 1.5606 0.27541 2.6623 1.836l11.2 13.862 1.1016 1.6524 1.1016-1.6524 11.108-13.77q1.1934-1.6524 2.6623-1.9278 1.5606-0.27541 2.6623-0.27541z"/>
  </g>
 </g>
</svg>
