<?xml version="1.0" encoding="UTF-8" standalone="no"?>
<svg
   xmlns:dc="http://purl.org/dc/elements/1.1/"
   xmlns:cc="http://creativecommons.org/ns#"
   xmlns:rdf="http://www.w3.org/1999/02/22-rdf-syntax-ns#"
   xmlns:svg="http://www.w3.org/2000/svg"
   xmlns="http://www.w3.org/2000/svg"
   xmlns:sodipodi="http://sodipodi.sourceforge.net/DTD/sodipodi-0.dtd"
   xmlns:inkscape="http://www.inkscape.org/namespaces/inkscape"
   id="svg1434"
   version="1.1"
   viewBox="0 0 8.3566517 8.2662398"
   height="128"
   width="129.39999"
   sodipodi:docname="logo-light-blue-a400.svg"
   inkscape:version="0.92.2 (5c3e80d, 2017-08-06)">
  <sodipodi:namedview
     pagecolor="#ffffff"
     bordercolor="#666666"
     borderopacity="1"
     objecttolerance="10"
     gridtolerance="10"
     guidetolerance="10"
     inkscape:pageopacity="0"
     inkscape:pageshadow="2"
     inkscape:window-width="1853"
     inkscape:window-height="1025"
     id="namedview822"
     showgrid="false"
     scale-x="1e-05"
     fit-margin-top="0"
     fit-margin-left="1.4"
     fit-margin-right="0"
     fit-margin-bottom="0"
     inkscape:zoom="0.89988904"
     inkscape:cx="404.71455"
     inkscape:cy="306.15329"
     inkscape:window-x="67"
     inkscape:window-y="27"
     inkscape:window-maximized="1"
     inkscape:current-layer="layer1" />
  <defs
     id="defs1428" />
  <metadata
     id="metadata1431">
    <rdf:RDF>
      <cc:Work
         rdf:about="">
        <dc:format>image/svg+xml</dc:format>
        <dc:type
           rdf:resource="http://purl.org/dc/dcmitype/StillImage" />
        <dc:title></dc:title>
      </cc:Work>
    </rdf:RDF>
  </metadata>
  <g
     id="layer1"
     transform="translate(-66.342412,-169.22498)">
    <path
       style="opacity:1;fill:#00b0ff;fill-opacity:1;stroke:none;stroke-width:15.00000191;stroke-linecap:butt;stroke-linejoin:miter;stroke-miterlimit:4;stroke-dasharray:none;stroke-opacity:1"
       d="m -273.03711,302.73633 v 128 h 128 v -128 z m 52.17969,24.89062 h 5.83203 c 0.35885,0 0.77739,0.0451 1.25586,0.13477 0.50837,0.0897 0.94193,0.38811 1.30078,0.89648 l 5.47266,6.77344 0.53906,0.80664 0.53711,-0.80664 5.42773,-6.72852 c 0.38876,-0.53827 0.82232,-0.85169 1.30078,-0.9414 0.50837,-0.0897 0.94194,-0.13477 1.30079,-0.13477 h 5.83203 l -10.67579,12.15625 h -7.44726 z m 13.63672,16.50586 c 3.58848,0 6.8487,0.56873 9.77929,1.70508 2.9605,1.13635 5.56189,2.7805 7.80469,4.93359 l -2.10742,4.12696 c -0.26914,0.44856 -0.56949,0.79202 -0.89844,1.03125 -0.29904,0.20933 -0.67253,0.31445 -1.12109,0.31445 -0.50837,0 -1.10713,-0.25335 -1.79492,-0.76172 -0.6878,-0.50837 -1.55492,-1.06207 -2.60157,-1.66015 -1.01673,-0.62799 -2.25735,-1.19671 -3.72265,-1.70508 -1.4354,-0.50837 -3.18467,-0.76172 -5.24805,-0.76172 -1.94376,0 -3.663,0.26837 -5.1582,0.80664 -1.4653,0.50837 -2.70592,1.21225 -3.72266,2.10937 -0.98683,0.89713 -1.73577,1.95753 -2.24414,3.1836 -0.50837,1.19616 -0.76172,2.49685 -0.76172,3.90234 0,1.79424 0.43357,3.29017 1.30078,4.48633 0.89712,1.16626 2.06266,2.16855 3.49805,3.00586 1.4653,0.83731 3.1114,1.56928 4.93555,2.19727 1.85405,0.59808 3.73653,1.22687 5.65039,1.88476 1.94376,0.65789 3.82819,1.40487 5.65234,2.24219 1.85405,0.80741 3.4982,1.83973 4.93359,3.0957 1.4653,1.25597 2.63279,2.795 3.5,4.61914 0.89713,1.82415 1.34571,4.06706 1.34571,6.72852 0,2.81098 -0.47862,5.45741 -1.43555,7.93945 -0.95693,2.45213 -2.36274,4.58992 -4.2168,6.41406 -1.82414,1.82415 -4.08207,3.26 -6.77343,4.30664 -2.66146,1.04665 -5.69641,1.57032 -9.10547,1.57032 -4.18657,0 -7.98352,-0.74699 -11.39258,-2.24219 -3.40906,-1.52511 -6.32582,-3.57474 -8.74805,-6.14649 l 2.51172,-4.12695 c 0.23923,-0.32894 0.52457,-0.59731 0.85352,-0.80664 0.35885,-0.23923 0.74736,-0.35937 1.16601,-0.35937 0.38876,0 0.82232,0.16519 1.30078,0.49414 0.50837,0.29904 1.07514,0.68755 1.70313,1.16601 0.62798,0.47847 1.34689,1.00214 2.1543,1.57031 0.80741,0.56818 1.71959,1.09185 2.73632,1.57032 1.04665,0.47846 2.2272,0.88199 3.54297,1.21093 1.31578,0.29904 2.79669,0.44727 4.44141,0.44727 2.06338,0 3.90276,-0.28339 5.51758,-0.85156 1.61482,-0.56818 2.97558,-1.36022 4.08203,-2.37696 1.13635,-1.04664 2.00348,-2.28726 2.60156,-3.72265 0.59808,-1.4354 0.89649,-3.03644 0.89649,-4.80078 0,-1.94377 -0.44859,-3.52784 -1.34571,-4.75391 -0.86721,-1.25597 -2.01773,-2.30331 -3.45312,-3.14062 -1.4354,-0.83732 -3.0815,-1.53925 -4.93555,-2.10743 -1.85405,-0.59808 -3.73653,-1.19684 -5.65039,-1.79492 -1.91386,-0.62798 -3.79829,-1.34493 -5.65234,-2.15234 -1.85405,-0.80741 -3.50016,-1.85475 -4.93555,-3.14063 -1.43539,-1.28587 -2.60093,-2.88497 -3.49805,-4.79882 -0.86721,-1.94377 -1.30078,-4.33686 -1.30078,-7.17774 0,-2.27271 0.43357,-4.47056 1.30078,-6.59375 0.89712,-2.12319 2.1828,-4.00762 3.85742,-5.65234 1.70453,-1.64473 3.7842,-2.96044 6.23633,-3.94727 2.48204,-0.98683 5.32175,-1.48047 8.52149,-1.48047 z"
       transform="matrix(0.06458,0,0,0.06458,84.065561,149.67427)"
       id="rect1402"
       inkscape:connector-curvature="0" />
  </g>
</svg>
