<?xml version="1.0" encoding="UTF-8" standalone="no"?>
<svg
   xmlns:dc="http://purl.org/dc/elements/1.1/"
   xmlns:cc="http://creativecommons.org/ns#"
   xmlns:rdf="http://www.w3.org/1999/02/22-rdf-syntax-ns#"
   xmlns:svg="http://www.w3.org/2000/svg"
   xmlns="http://www.w3.org/2000/svg"
   xmlns:sodipodi="http://sodipodi.sourceforge.net/DTD/sodipodi-0.dtd"
   xmlns:inkscape="http://www.inkscape.org/namespaces/inkscape"
   id="svg1434"
   version="1.1"
   viewBox="0 0 12.916 12.916"
   height="200"
   width="200"
   sodipodi:docname="logo-pre-optimized.svg"
   inkscape:version="0.92.3 (2405546, 2018-03-11)">
  <sodipodi:namedview
     pagecolor="#ffffff"
     bordercolor="#666666"
     borderopacity="1"
     objecttolerance="10"
     gridtolerance="10"
     guidetolerance="10"
     inkscape:pageopacity="0"
     inkscape:pageshadow="2"
     inkscape:window-width="1853"
     inkscape:window-height="1025"
     id="namedview822"
     showgrid="false"
     scale-x="1e-05"
     fit-margin-top="0"
     fit-margin-left="1.4"
     fit-margin-right="0"
     fit-margin-bottom="0"
     inkscape:zoom="0.89988904"
     inkscape:cx="-94.791481"
     inkscape:cy="-4.9961824"
     inkscape:window-x="67"
     inkscape:window-y="27"
     inkscape:window-maximized="1"
     inkscape:current-layer="layer1" />
  <defs
     id="defs1428" />
  <metadata
     id="metadata1431">
    <rdf:RDF>
      <cc:Work
         rdf:about="">
        <dc:format>image/svg+xml</dc:format>
        <dc:type
           rdf:resource="http://purl.org/dc/dcmitype/StillImage" />
        <dc:title></dc:title>
      </cc:Work>
    </rdf:RDF>
  </metadata>
  <g
     id="layer1"
     transform="translate(-66.342412,-164.57522)">
    <path
       style="opacity:1;fill:#212121;fill-opacity:1;stroke:none;stroke-width:0.96870017;stroke-linecap:butt;stroke-linejoin:miter;stroke-miterlimit:4;stroke-dasharray:none;stroke-opacity:1"
       d="m 66.342412,164.57522 v 12.916 h 12.916 v -12.916 z m 5.265257,2.51163 h 0.588488 c 0.03621,0 0.07844,0.005 0.126724,0.0141 0.0513,0.009 0.09505,0.0392 0.131257,0.0905 l 0.552226,0.68348 0.05439,0.0814 0.0542,-0.0814 0.547692,-0.67895 c 0.03923,-0.0544 0.08298,-0.0859 0.131257,-0.095 0.0513,-0.009 0.09505,-0.0141 0.131258,-0.0141 h 0.588488 l -1.077254,1.22664 H 72.68492 Z m 1.37603,1.66554 c 0.3621,0 0.691077,0.0574 0.986792,0.17205 0.298733,0.11469 0.561229,0.28058 0.787542,0.49783 l -0.212652,0.41643 c -0.02716,0.0453 -0.05747,0.0799 -0.09066,0.10407 -0.03017,0.0211 -0.06786,0.0317 -0.113125,0.0317 -0.0513,0 -0.111717,-0.0256 -0.181119,-0.0769 -0.0694,-0.0512 -0.156901,-0.10719 -0.262515,-0.16751 -0.102594,-0.0633 -0.22778,-0.12079 -0.375638,-0.17205 -0.144841,-0.0513 -0.321353,-0.0769 -0.529561,-0.0769 -0.196138,0 -0.36962,0.027 -0.520495,0.0814 -0.147858,0.0513 -0.273044,0.12234 -0.37564,0.21284 -0.09958,0.0905 -0.17515,0.19753 -0.226447,0.32125 -0.0513,0.12063 -0.07686,0.25196 -0.07686,0.39377 0,0.18105 0.04375,0.332 0.131257,0.4527 0.09052,0.11766 0.208135,0.21881 0.352975,0.30331 0.147858,0.0845 0.31396,0.15835 0.498028,0.22172 0.187085,0.0603 0.377039,0.12375 0.57016,0.19019 0.196137,0.0664 0.386288,0.14172 0.570356,0.22625 0.187085,0.0814 0.35299,0.18564 0.49783,0.31238 0.147858,0.12671 0.265665,0.28203 0.353172,0.46609 0.09053,0.18406 0.135791,0.41039 0.135791,0.67895 0,0.28364 -0.0483,0.55069 -0.144856,0.80114 -0.09656,0.24744 -0.238416,0.46314 -0.425502,0.64722 -0.184067,0.18406 -0.411906,0.32896 -0.683481,0.43456 -0.268558,0.10563 -0.574804,0.15846 -0.918799,0.15846 -0.422451,0 -0.805587,-0.0753 -1.149583,-0.22625 -0.343995,-0.15391 -0.638314,-0.36072 -0.882732,-0.62022 l 0.253448,-0.41644 c 0.02414,-0.0331 0.05293,-0.0603 0.08612,-0.0814 0.03621,-0.0241 0.07541,-0.0362 0.117658,-0.0362 0.03923,0 0.08298,0.0167 0.131257,0.0498 0.0513,0.0302 0.108488,0.0694 0.171856,0.11766 0.06337,0.0483 0.13591,0.10109 0.217383,0.15845 0.08147,0.0573 0.173517,0.11015 0.276111,0.15847 0.105614,0.0483 0.224739,0.0891 0.357508,0.12218 0.132771,0.0302 0.282204,0.0452 0.448166,0.0452 0.208208,0 0.393813,-0.0286 0.556759,-0.0859 0.162945,-0.0573 0.300254,-0.13718 0.411902,-0.23986 0.114665,-0.10562 0.202164,-0.23079 0.262514,-0.37562 0.06035,-0.14484 0.09046,-0.30641 0.09046,-0.48444 0,-0.19614 -0.04527,-0.35598 -0.135791,-0.4797 -0.08751,-0.12672 -0.203601,-0.23241 -0.348441,-0.31691 -0.144841,-0.0845 -0.310943,-0.15531 -0.498028,-0.21265 -0.187085,-0.0603 -0.377039,-0.12079 -0.570159,-0.18111 -0.193121,-0.0634 -0.383272,-0.13578 -0.570357,-0.21719 -0.187085,-0.0814 -0.353188,-0.18716 -0.498028,-0.31691 -0.14484,-0.12968 -0.26245,-0.29111 -0.352975,-0.48423 -0.08751,-0.19614 -0.131257,-0.43761 -0.131257,-0.72428 0,-0.22933 0.04375,-0.45111 0.131257,-0.66535 0.09052,-0.21425 0.220258,-0.40439 0.389238,-0.57036 0.171998,-0.16596 0.381849,-0.29871 0.629285,-0.39829 0.250453,-0.0995 0.536997,-0.14938 0.859871,-0.14938 z"
       id="rect1402"
       inkscape:connector-curvature="0" />
  </g>
</svg>
